<svg width="446" height="447" viewBox="0 0 446 447" fill="none" xmlns="http://www.w3.org/2000/svg">
<path d="M278.5 63.5L278.952 63.5107C283.597 63.7293 287.431 67.2977 287.943 71.9639L305.443 231.464C305.738 234.148 304.876 236.83 303.074 238.841C301.272 240.851 298.7 242 296 242H150C147.321 242 144.766 240.869 142.965 238.885C141.164 236.901 140.286 234.248 140.545 231.581L156.045 72.0811L156.1 71.6279C156.774 66.9847 160.762 63.5 165.5 63.5H278.5Z" fill="#E2E2E2" stroke="black" stroke-width="19" stroke-linejoin="round"/>
<path d="M238.737 436.625L239.171 436.615C243.629 436.414 247.373 433.12 248.109 428.68L264.348 330.805C264.804 328.051 264.027 325.236 262.222 323.106C260.417 320.977 257.767 319.75 254.976 319.75H190.023C187.232 319.75 184.582 320.977 182.777 323.106C180.972 325.236 180.195 328.051 180.651 330.805L196.89 428.68L196.97 429.105C197.898 433.47 201.76 436.625 206.262 436.625H238.737Z" fill="#8B8383" stroke="black" stroke-width="19" stroke-linejoin="round"/>
<path d="M281 223.5C335.902 223.5 380.5 267.774 380.5 322.5C380.5 327.747 376.247 332 371 332H74C68.7533 332 64.5 327.747 64.5 322.5C64.5 267.774 109.098 223.5 164 223.5H281Z" fill="#D3D3D3" stroke="black" stroke-width="19" stroke-linejoin="round"/>
<path d="M261.697 9.5C299.235 9.50014 331.5 36.9709 331.5 73C331.5 78.2467 327.247 82.5 322 82.5H123C117.753 82.5 113.5 78.2467 113.5 73C113.5 36.9709 145.765 9.50015 183.303 9.5H261.697Z" fill="#D3D3D3" stroke="black" stroke-width="19" stroke-linejoin="round"/>
</svg>
